<svg width="29" height="29" viewBox="0 0 29 29" fill="none" xmlns="http://www.w3.org/2000/svg">
<path fill-rule="evenodd" clip-rule="evenodd" d="M26.3508 0.0859375C27.6774 0.0859375 28.7528 1.1606 28.7528 2.48793V26.4367C28.7528 27.7633 27.6781 28.8387 26.3508 28.8387H2.40199C1.07541 28.8387 0 27.7641 0 26.4367V2.48793C0 1.16135 1.07467 0.0859375 2.40199 0.0859375H26.3508ZM19.4345 10.869C17.3938 10.869 15.9976 11.7709 15.3759 12.8188L15.2743 13.0051V11.0487H11.3807V24.8261H15.5738V18.1524C15.5738 15.9157 16.3974 14.4931 18.3772 14.4931C19.7426 14.4931 20.3155 15.7004 20.3627 17.8531L20.3659 18.1524V24.8261H24.559V17.2168C24.559 13.1081 23.5761 10.869 19.4345 10.869ZM8.3857 10.869H4.19259V24.6464H8.3857V10.869ZM6.28932 3.68164C4.80077 3.68164 3.59375 4.88866 3.59375 6.37722C3.59375 7.86577 4.80077 9.07279 6.28932 9.07279C7.77788 9.07279 8.9849 7.86577 8.9849 6.37722C8.9849 4.88866 7.77788 3.68164 6.28932 3.68164Z" fill="currentColor"/>
</svg>
