<svg width="32" height="25" viewBox="0 0 32 25" fill="none" xmlns="http://www.w3.org/2000/svg">
<path d="M10.0528 24.0859C22.128 24.0859 28.7344 14.8493 28.7344 6.85369C28.7344 6.59396 28.7344 6.33423 28.7216 6.0745C30.0081 5.21462 31.1183 4.15021 32 2.93117C30.7994 3.42043 29.527 3.74318 28.224 3.88893C29.5969 3.13082 30.6248 1.93891 31.1168 0.534563C29.8264 1.24064 28.4137 1.73637 26.9408 1.99998C26.3277 1.39577 25.5865 0.914133 24.7634 0.584893C23.9402 0.255653 23.0525 0.0858272 22.1552 0.0859376C20.4132 0.0871102 18.743 0.725886 17.5112 1.86199C16.2794 2.99809 15.5869 4.53864 15.5856 6.14534C15.5856 6.61757 15.6496 7.078 15.752 7.52663C13.1406 7.40568 10.586 6.77953 8.25406 5.68884C5.92208 4.59815 3.86488 3.06731 2.216 1.1957C1.37805 2.53059 1.12225 4.10956 1.50054 5.61207C1.87882 7.11457 2.86283 8.428 4.2528 9.28572C3.21132 9.25246 2.19294 8.99362 1.28 8.53014V8.61278C1.28141 10.0108 1.80597 11.3654 2.76506 12.4479C3.72415 13.5304 5.05897 14.2744 6.544 14.5541C5.9812 14.6973 5.39981 14.7688 4.816 14.7666C4.392 14.7666 3.9824 14.7312 3.584 14.6604C4.00262 15.8643 4.81922 16.9172 5.91933 17.6714C7.01943 18.4257 8.34787 18.8435 9.7184 18.8662C7.39288 20.5523 4.51963 21.4673 1.5616 21.4635C1.0368 21.4635 0.512 21.4399 0 21.3809C3.00274 23.1482 6.49077 24.0868 10.0528 24.0859Z" fill="currentColor"/>
</svg>
