<svg width="117" height="130" viewBox="0 0 117 130" fill="none" xmlns="http://www.w3.org/2000/svg">
<g clip-path="url(#clip0_248_2153)">
<path d="M26.3926 3.08147V15.6377C26.3926 16.826 27.3524 17.7882 28.5378 17.7882H29.398C30.4732 17.7882 31.3858 16.989 31.5222 15.9164L31.5589 15.6482C32.0467 11.9045 35.2304 9.10193 38.9963 9.10193C42.7675 9.10193 45.9512 11.9045 46.4389 15.6482L46.4704 15.9164C46.612 16.9837 47.5194 17.7882 48.5946 17.7882C49.78 17.7882 50.7398 16.826 50.7398 15.6377V3.08147C50.7398 2.16656 50.0003 1.41992 49.0824 1.41992H28.05C27.1374 1.41992 26.3926 2.16131 26.3926 3.08147V3.08147Z" stroke="#8EC840" stroke-width="3" stroke-miterlimit="10" stroke-linecap="round"/>
<path d="M50.7344 8.53418H77.5835V48.5847" stroke="#8EC840" stroke-width="3" stroke-miterlimit="10" stroke-linecap="round"/>
<path d="M56.8976 113.332H1.41602V8.53418H26.3927" stroke="#8EC840" stroke-width="3" stroke-miterlimit="10" stroke-linecap="round"/>
<path d="M20.2295 30.002H56.4934" stroke="#8EC840" stroke-width="3" stroke-miterlimit="10" stroke-linecap="round"/>
<path d="M20.6338 39.4932H56.8977" stroke="#8EC840" stroke-width="3" stroke-miterlimit="10" stroke-linecap="round"/>
<path d="M108.928 48.584H62.5935C59.4477 48.584 56.8975 51.1405 56.8975 54.2942V122.87C56.8975 126.023 59.4477 128.58 62.5935 128.58H108.928C112.074 128.58 114.624 126.023 114.624 122.87V54.2942C114.624 51.1405 112.074 48.584 108.928 48.584Z" stroke="#8EC840" stroke-width="3" stroke-miterlimit="10" stroke-linecap="round"/>
<path d="M106.526 56.708H64.996V68.6753H106.526V56.708Z" stroke="#8EC840" stroke-width="3" stroke-miterlimit="10" stroke-linecap="round"/>
<path d="M93.1719 88.335H101.674" stroke="#8EC840" stroke-width="3" stroke-miterlimit="10" stroke-linecap="round"/>
<path d="M69.8428 88.335H78.3502" stroke="#8EC840" stroke-width="3" stroke-miterlimit="10" stroke-linecap="round"/>
<path d="M74.0957 84.0762V92.5995" stroke="#8EC840" stroke-width="3" stroke-miterlimit="10" stroke-linecap="round"/>
<path d="M71.0908 108.4L77.1016 114.426" stroke="#8EC840" stroke-width="3" stroke-miterlimit="10" stroke-linecap="round"/>
<path d="M77.1016 108.4L71.0908 114.426" stroke="#8EC840" stroke-width="3" stroke-miterlimit="10" stroke-linecap="round"/>
<path d="M92.2598 111.308H100.767" stroke="#8EC840" stroke-width="3" stroke-miterlimit="10" stroke-linecap="round"/>
<path d="M96.8017 107.459C96.6863 107.575 96.5027 107.575 96.3873 107.459C96.2719 107.343 96.2719 107.159 96.3873 107.044C96.5027 106.928 96.6863 106.928 96.8017 107.044C96.9171 107.159 96.9171 107.343 96.8017 107.459Z" stroke="#8EC840" stroke-width="3" stroke-miterlimit="10" stroke-linecap="round"/>
<path d="M96.8017 115.866C96.6863 115.982 96.5027 115.982 96.3873 115.866C96.2719 115.751 96.2719 115.567 96.3873 115.451C96.5027 115.335 96.6863 115.335 96.8017 115.451C96.9171 115.567 96.9171 115.751 96.8017 115.866Z" stroke="#8EC840" stroke-width="3" stroke-miterlimit="10" stroke-linecap="round"/>
<path d="M63.3486 99.3877H108.167" stroke="#8EC840" stroke-width="3" stroke-miterlimit="10" stroke-linecap="round"/>
<path d="M86.0022 76.9199V121.855" stroke="#8EC840" stroke-width="3" stroke-miterlimit="10" stroke-linecap="round"/>
</g>
<defs>
<clipPath id="clip0_248_2153">
<rect width="116.04" height="130" fill="white"/>
</clipPath>
</defs>
</svg>
