<svg width="116" height="135" viewBox="0 0 116 135" fill="none" xmlns="http://www.w3.org/2000/svg">
<path d="M66.3955 37.5586V75.6687" stroke="#8EC840" stroke-width="3" stroke-miterlimit="10" stroke-linecap="round"/>
<path d="M38.5049 73.2291V37.5586" stroke="#8EC840" stroke-width="3" stroke-miterlimit="10" stroke-linecap="round"/>
<path d="M58.9678 54.0052L52.4497 47.4824L45.9316 54.0052" stroke="#8EC840" stroke-width="3" stroke-miterlimit="10" stroke-linecap="round"/>
<path d="M58.9676 67.0415L52.4495 60.5234L45.9314 67.0415" stroke="#8EC840" stroke-width="3" stroke-miterlimit="10" stroke-linecap="round"/>
<path d="M66.3953 27.2733V17.0252L52.4501 3L38.505 17.0252V27.2733" stroke="#8EC840" stroke-width="3" stroke-miterlimit="10" stroke-linecap="round"/>
<path d="M111.626 37.5584L101.533 27.4893H27.6728H11.1279V37.5584V44.0341H27.6728V37.5584H111.626Z" stroke="#8EC840" stroke-width="3" stroke-miterlimit="10" stroke-linecap="round"/>
<path d="M101.533 37.5586V55.3232" stroke="#8EC840" stroke-width="3" stroke-miterlimit="10" stroke-linecap="round"/>
<path d="M84.2491 99.6735C68.9852 109.922 57.6021 93.0424 57.6021 93.0424C52.2049 85.6671 48.3478 93.2873 48.3478 93.2873C45.5079 100.182 41.4152 99.5557 39.0039 98.3736C37.7888 97.7755 37.2142 96.3532 37.591 95.0534L39.4136 88.8037C40.2143 86.0627 42.1829 83.8162 44.7967 82.6624L51.6822 79.6341C54.1453 78.5509 56.4153 78.7958 59.453 79.4175L77.4013 83.6655L99.998 74.8633" stroke="#8EC840" stroke-width="3" stroke-miterlimit="10" stroke-linecap="round"/>
<path d="M102.297 98.4736L76.2197 112.292" stroke="#8EC840" stroke-width="3" stroke-miterlimit="10" stroke-linecap="round"/>
<path d="M71.6123 107.949L78.1304 114.684C78.9122 115.664 79.1335 116.973 78.7191 118.15C77.6877 121.08 73.9247 121.876 71.7959 119.615L57.8037 104.766" stroke="#8EC840" stroke-width="3" stroke-miterlimit="10" stroke-linecap="round"/>
<path d="M51.6113 111.75L63.3853 124.07C66.5596 127.391 72.1876 126.18 73.5958 121.805C73.6193 121.739 73.6381 121.668 73.6617 121.598" stroke="#8EC840" stroke-width="3" stroke-miterlimit="10" stroke-linecap="round"/>
<path d="M45.9639 117.542L55.7033 128.355C56.7865 129.561 58.2748 130.385 59.8949 130.47C61.7316 130.569 64.0582 129.872 66.0126 126.669" stroke="#8EC840" stroke-width="3" stroke-miterlimit="10" stroke-linecap="round"/>
<path d="M56.7068 129.472C56.7021 129.515 56.6926 129.557 56.6879 129.599C56.1887 132.731 52.2703 133.918 49.9862 131.723L21.4836 102.971L2 97.4609" stroke="#8EC840" stroke-width="3" stroke-miterlimit="10" stroke-linecap="round"/>
<path d="M26.1086 107.638L21.0222 113.19C19.8495 114.5 20.0097 116.525 21.366 117.636C22.793 118.804 24.8841 118.635 26.1086 117.255" stroke="#8EC840" stroke-width="3" stroke-miterlimit="10" stroke-linecap="round"/>
<path d="M33.2722 120.806L30.6395 123.674C29.236 125.205 26.8718 125.342 25.3035 123.981C23.6976 122.591 23.528 120.166 24.9173 118.565L29.7447 113.257" stroke="#8EC840" stroke-width="3" stroke-miterlimit="10" stroke-linecap="round"/>
<path d="M35.6128 118.259L31.5672 122.662C30.1544 124.202 30.2485 126.595 31.7792 128.022C33.3145 129.449 35.707 129.369 37.1434 127.848L38.9236 125.959" stroke="#8EC840" stroke-width="3" stroke-miterlimit="10" stroke-linecap="round"/>
<path d="M46.6804 128.549L43.2047 131.916C41.8248 133.324 39.5689 133.367 38.1466 132.006C36.7149 130.64 36.6536 128.374 38.0147 126.933L41.3303 123.42" stroke="#8EC840" stroke-width="3" stroke-miterlimit="10" stroke-linecap="round"/>
<path d="M48.0742 80.9395L6.86047 70.3994" stroke="#8EC840" stroke-width="3" stroke-miterlimit="10" stroke-linecap="round"/>
</svg>
