<svg width="132" height="130" viewBox="0 0 132 130" fill="none" xmlns="http://www.w3.org/2000/svg">
<g clip-path="url(#clip0_248_2128)">
<path d="M18.0496 78.9453L89.7182 120.217" stroke="#8EC840" stroke-width="3" stroke-linecap="round" stroke-linejoin="round"/>
<path d="M18.0498 78.9446V10.9805" stroke="#8EC840" stroke-width="3" stroke-linecap="round" stroke-linejoin="round"/>
<path d="M11.1365 8.42956L18.0496 1.54004L24.9576 8.42956" stroke="#8EC840" stroke-width="3" stroke-linecap="round" stroke-linejoin="round"/>
<path d="M98.0588 119.724L99.9309 125.778L90.1416 126.83" stroke="#8EC840" stroke-width="3" stroke-linecap="round" stroke-linejoin="round"/>
<path d="M7.74552 85.8047L1.3623 89.4784" stroke="#8EC840" stroke-width="3" stroke-linecap="round" stroke-linejoin="round"/>
<path d="M16.6519 90.7012L10.2687 94.3749" stroke="#8EC840" stroke-width="3" stroke-linecap="round" stroke-linejoin="round"/>
<path d="M25.5581 95.5977L19.1749 99.2714" stroke="#8EC840" stroke-width="3" stroke-linecap="round" stroke-linejoin="round"/>
<path d="M34.4643 100.494L28.0811 104.168" stroke="#8EC840" stroke-width="3" stroke-linecap="round" stroke-linejoin="round"/>
<path d="M43.3705 105.391L36.9873 109.064" stroke="#8EC840" stroke-width="3" stroke-linecap="round" stroke-linejoin="round"/>
<path d="M52.2768 110.288L45.8936 113.962" stroke="#8EC840" stroke-width="3" stroke-linecap="round" stroke-linejoin="round"/>
<path d="M61.183 115.185L54.7998 118.858" stroke="#8EC840" stroke-width="3" stroke-linecap="round" stroke-linejoin="round"/>
<path d="M69.761 120.076L63.3828 123.745" stroke="#8EC840" stroke-width="3" stroke-linecap="round" stroke-linejoin="round"/>
<path d="M78.345 124.963L71.9668 128.637" stroke="#8EC840" stroke-width="3" stroke-linecap="round" stroke-linejoin="round"/>
<path d="M31.21 48.015L51.3537 36.415L88.7598 57.6221L68.6161 69.2271" stroke="#8EC840" stroke-width="3" stroke-linecap="round" stroke-linejoin="round"/>
<path d="M88.7598 57.6227V80.8276L68.6161 92.4276L31.21 71.2155V48.0156L68.6161 69.2277V84.6373" stroke="#8EC840" stroke-width="3" stroke-linecap="round" stroke-linejoin="round"/>
<path d="M50.7676 12.9634L70.9113 1.3584L108.317 22.5705L88.1687 34.1704" stroke="#8EC840" stroke-width="3" stroke-linecap="round" stroke-linejoin="round"/>
<path d="M88.1689 57.3762L108.318 45.7712V22.5713" stroke="#8EC840" stroke-width="3" stroke-linecap="round" stroke-linejoin="round"/>
<path d="M88.1687 49.5855V34.1709L50.7676 12.9639V36.1638" stroke="#8EC840" stroke-width="3" stroke-linecap="round" stroke-linejoin="round"/>
<path d="M108.318 46.0225V69.2274L88.7598 80.8274" stroke="#8EC840" stroke-width="3" stroke-linecap="round" stroke-linejoin="round"/>
<path d="M95.2686 105.402L130.283 85.2413L112.773 75.1611" stroke="#8EC840" stroke-width="3" stroke-linecap="round" stroke-linejoin="round"/>
<path d="M122.452 89.7502L114.282 85.0498" stroke="#8EC840" stroke-width="3" stroke-linecap="round" stroke-linejoin="round"/>
<path d="M114.621 94.259L106.451 89.5586" stroke="#8EC840" stroke-width="3" stroke-linecap="round" stroke-linejoin="round"/>
<path d="M106.789 98.7678L98.6191 94.0674" stroke="#8EC840" stroke-width="3" stroke-linecap="round" stroke-linejoin="round"/>
</g>
<defs>
<clipPath id="clip0_248_2128">
<rect width="131.646" height="130" fill="currentColor"/>
</clipPath>
</defs>
</svg>
